<?xml version="1.0" standalone="no"?>
<!DOCTYPE svg PUBLIC "-//W3C//DTD SVG 20010904//EN"
 "http://www.w3.org/TR/2001/REC-SVG-20010904/DTD/svg10.dtd">
<svg version="1.0" xmlns="http://www.w3.org/2000/svg"
 width="181.000000pt" height="181.000000pt" viewBox="0 0 181.000000 181.000000"
 preserveAspectRatio="xMidYMid meet">
<metadata>
Created by potrace 1.11, written by Peter Selinger 2001-2013
</metadata>
<g transform="translate(0.000000,181.000000) scale(0.100000,-0.100000)"
fill="#000000" stroke="none">
<path d="M848 1635 c-2 -2 -30 -6 -63 -9 -382 -43 -684 -288 -760 -616 -23
-101 -14 -283 19 -386 91 -285 353 -445 731 -447 423 -2 715 115 903 364 91
121 128 257 119 434 -8 133 -25 204 -79 312 -120 246 -337 350 -730 351 -75 0
-138 -1 -140 -3z"/>
</g>
</svg>
