<svg width="197" height="162" viewBox="0 0 197 162" fill="none" xmlns="http://www.w3.org/2000/svg">
<path d="M2.50064 104.5C-8.99999 46.5 36.3309 14.8333 63.4976 6.99998C77.6642 2.49998 114.998 -3.80002 150.998 6.99998C195.998 20.5 206.5 84 186.498 115.5C158.704 159.27 104.998 161.5 77.4976 160.5C49.9976 159.5 10.7897 146.304 2.50064 104.5Z" fill="#0167FF" stroke="#0167FF"/>
<path d="M78.418 93.5C78.418 93.5 75.841 97 50.0684 97C24.2958 97 21.4052 93.5 21.4052 93.5M20 90C21.1455 91.8333 22.7491 95.9 20 97.5" stroke="#242424" stroke-linecap="round" stroke-linejoin="round"/>
<path d="M78.4179 93.5C78.4179 93.5 75.8409 97 50.0683 97C24.2957 97 21.4051 93.5 21.4051 93.5M20 90C21.1455 91.8333 22.7491 95.9 20 97.5M80.1364 90C78.4179 92 78.4179 96 83 97.5" stroke="white" stroke-linecap="round" stroke-linejoin="round"/>
<circle cx="35" cy="71" r="7" fill="white"/>
<circle cx="66" cy="71" r="7" fill="white"/>
<circle cx="66" cy="71" r="6" fill="black"/>
<circle cx="35" cy="71" r="6" fill="black"/>
</svg>
