<svg width="79" height="42" viewBox="0 0 79 42" fill="none" xmlns="http://www.w3.org/2000/svg">
<path d="M72.3042 36.1788C72.3042 36.1788 69.1777 40.4251 37.9098 40.4251C6.64178 40.4251 3.13487 36.1788 3.13487 36.1788M1.43011 31.9325C2.81979 34.1567 4.76536 39.0905 1.43011 41.0317" stroke="#242424" stroke-width="1.21323" stroke-linecap="round" stroke-linejoin="round"/>
<path d="M72.3042 36.1788C72.3042 36.1788 69.1777 40.4251 37.9097 40.4251C6.64176 40.4251 3.13485 36.1788 3.13485 36.1788M1.43009 31.9325C2.81978 34.1567 4.76534 39.0905 1.43009 41.0317M74.3891 31.9325C72.3042 34.3589 72.3042 39.2118 77.8633 41.0317" stroke="white" stroke-width="1.21323" stroke-linecap="round" stroke-linejoin="round"/>
<circle cx="19.6283" cy="8.88125" r="8.49258" fill="white"/>
<circle cx="57.2387" cy="8.88125" r="8.49258" fill="white"/>
<circle cx="57.2383" cy="8.88116" r="7.27935" fill="black"/>
<circle cx="19.6285" cy="8.88116" r="7.27935" fill="black"/>
</svg>
