<svg width="35" height="36" viewBox="0 0 35 36" fill="none" xmlns="http://www.w3.org/2000/svg">
<rect x="9.85693" y="9.1106" width="15.4452" height="16.0509" fill="url(#paint0_linear)"/>
<path fill-rule="evenodd" clip-rule="evenodd" d="M9.73171 6.36414L9.27539 6.55813L9.70613 6.50429C9.71438 6.45751 9.72291 6.41079 9.73171 6.36414ZM6.62518 20.8684C5.15733 18.1447 4.58939 15.1291 4.82258 12.2172L5.0177 12.4826L7.22049 11.1365L9.65172 6.83941C9.27907 9.35309 9.67893 12.0155 10.9598 14.3922C13.9249 19.8943 20.4887 21.7816 25.6204 18.6075C27.5737 17.3993 31.9697 17.7516 31.0038 19.9053C29.8435 22.4925 27.9693 24.745 25.4746 26.288C18.8767 30.369 10.4375 27.9425 6.62518 20.8684Z" fill="url(#paint1_linear)"/>
<path fill-rule="evenodd" clip-rule="evenodd" d="M16.547 3.78137L10.646 7.52621L8.12793 9.82396C13.9992 9.24223 19.236 13.5868 19.8379 19.5512C20.04 21.5529 19.6943 23.4835 18.9241 25.1894C22.3471 22.2689 24.4797 21.561 25.6197 21.6459C26.2298 19.8078 26.4715 17.8109 26.264 15.7555C25.6802 9.97059 21.7052 5.37088 16.547 3.78137Z" fill="url(#paint2_linear)"/>
<path fill-rule="evenodd" clip-rule="evenodd" d="M18.3998 9.83256C12.6396 11.5595 9.3952 17.713 11.1532 23.5768C12.5237 28.1482 16.5299 31.194 20.9586 31.4963C13.7453 33.2928 6.28822 29.0147 4.09258 21.6911C1.83231 14.1519 6.00371 6.24027 13.4097 4.01994C20.8156 1.79962 28.6516 6.11141 30.9119 13.6506C31.1107 14.3138 31.2598 14.9799 31.3612 15.6448C29.0413 10.8404 23.585 8.27802 18.3998 9.83256Z" fill="url(#paint3_linear)"/>
<path fill-rule="evenodd" clip-rule="evenodd" d="M16.0769 25.5526C22.0529 24.3773 25.9312 18.512 24.7393 12.452C23.8102 7.72752 20.0736 4.27953 15.64 3.54624C23.0877 2.44139 30.1805 7.46209 31.6691 15.031C33.2014 22.8224 28.2151 30.3635 20.5317 31.8746C12.8484 33.3857 5.3776 28.2945 3.84526 20.5032C3.71059 19.8184 3.62627 19.1356 3.5897 18.4586C5.45316 23.5081 10.6981 26.6105 16.0769 25.5526Z" fill="url(#paint4_linear)"/>
<defs>
<linearGradient id="paint0_linear" x1="17.5795" y1="9.1106" x2="17.5795" y2="25.1615" gradientUnits="userSpaceOnUse">
<stop offset="0.14638" stop-color="#00233C"/>
<stop offset="0.742983" stop-color="#0A62A2"/>
</linearGradient>
<linearGradient id="paint1_linear" x1="11.3935" y1="17.2468" x2="22.3146" y2="22.23" gradientUnits="userSpaceOnUse">
<stop stop-color="#003860"/>
<stop offset="1" stop-color="#037ED6"/>
</linearGradient>
<linearGradient id="paint2_linear" x1="10.2567" y1="5.08456" x2="20.3591" y2="12.5852" gradientUnits="userSpaceOnUse">
<stop stop-color="#063D66"/>
<stop offset="1" stop-color="#035B9B"/>
</linearGradient>
<linearGradient id="paint3_linear" x1="12.9792" y1="35.5577" x2="12.8524" y2="0.272888" gradientUnits="userSpaceOnUse">
<stop offset="0.197917" stop-color="#00192B"/>
<stop offset="1" stop-color="#0087E9"/>
</linearGradient>
<linearGradient id="paint4_linear" x1="28.6414" y1="8.28927" x2="10.0296" y2="28.8056" gradientUnits="userSpaceOnUse">
<stop stop-color="#0094FF"/>
<stop offset="1" stop-color="#043457"/>
</linearGradient>
</defs>
</svg>
